<?xml version="1.0" encoding="UTF-8"?>
<svg xmlns="http://www.w3.org/2000/svg" xmlns:xlink="http://www.w3.org/1999/xlink" width="60" height="60" viewBox="0 0 50 50" version="1.1">
<g id="surface3700139">
<path style=" stroke:none;fill-rule:nonzero;fill:rgb(100%,100%,100%);fill-opacity:1;" d="M 9.984375 15.003906 C 9.148438 15.042969 8.117188 15.574219 7.53125 16.320312 C 6.988281 16.964844 6.527344 18.011719 6.644531 18.992188 C 7.585938 19.074219 8.53125 18.5 9.121094 17.773438 C 9.699219 17.027344 10.082031 16.023438 9.984375 15.003906 Z M 18 17 L 18 32 L 20.375 32 L 20.375 27 L 23.625 27 C 26.609375 27 28.75 24.925781 28.75 22 C 28.75 19.074219 26.648438 17 23.703125 17 Z M 20.375 19 L 23.125 19 C 25.171875 19 26.375 20.105469 26.375 22 C 26.375 23.894531 25.183594 25 23.125 25 L 20.375 25 Z M 9.875 19.5 C 8.5 19.5 7.515625 20.25 6.875 20.25 C 6.222656 20.25 5.25 19.507812 4.125 19.507812 C 2.75 19.507812 1.402344 20.371094 0.691406 21.628906 C -0.765625 24.144531 0.316406 27.867188 1.722656 29.914062 C 2.414062 30.929688 3.25 32 4.375 32 C 5.40625 31.960938 5.753906 31.375 7 31.375 C 8.253906 31.375 8.625 32 9.75 32 C 10.875 32 11.554688 30.96875 12.246094 29.953125 C 13.035156 28.804688 13.355469 27.683594 13.375 27.625 C 13.355469 27.605469 11.199219 26.777344 11.179688 24.28125 C 11.160156 22.195312 12.878906 21.199219 12.957031 21.140625 C 11.984375 19.699219 10.375 19.5 10 19.5 Z M 34.199219 21 C 31.710938 21 29.871094 22.394531 29.804688 24.316406 L 31.914062 24.316406 C 32.085938 23.402344 32.949219 22.804688 34.132812 22.804688 C 35.5625 22.804688 36.375 23.460938 36.375 24.667969 L 36.375 25.5 L 33.445312 25.652344 C 30.722656 25.816406 29.25 26.910156 29.25 28.808594 C 29.25 30.726562 30.769531 32 32.949219 32 C 34.421875 32 35.789062 31.269531 36.40625 30.109375 L 36.457031 30.109375 L 36.457031 31.886719 L 38.625 31.886719 L 38.625 24.515625 C 38.625 22.375 36.882812 21 34.199219 21 Z M 39.5 21 L 43.507812 31.949219 L 43.292969 32.617188 C 42.929688 33.746094 42.34375 34.179688 41.296875 34.179688 C 41.121094 34.179688 40.78125 34.160156 40.625 34.140625 L 40.625 35.945312 C 40.78125 35.980469 41.332031 36 41.503906 36 C 43.8125 36 44.898438 35.132812 45.847656 32.5 L 50 21 L 47.597656 21 L 44.808594 29.886719 L 44.761719 29.886719 L 41.972656 21 Z M 36.375 27 L 36.367188 27.867188 C 36.367188 29.253906 35.167969 30.242188 33.578125 30.242188 C 32.328125 30.242188 31.535156 29.652344 31.535156 28.753906 C 31.535156 27.820312 32.300781 27.28125 33.765625 27.195312 Z M 36.375 27 "/>
</g>
</svg>
