<?xml version="1.0" encoding="UTF-8"?>
<svg width="35px" height="20px" viewBox="0 0 35 20" version="1.1" xmlns="http://www.w3.org/2000/svg" xmlns:xlink="http://www.w3.org/1999/xlink">
    <title>90DE5A15-C42F-4ACC-A316-2A22BF092B06</title>
    <g id="FINAL-UI-Design" stroke="none" stroke-width="1" fill="none" fill-rule="evenodd">
        <g id="Footer-UI-Final" transform="translate(-294.000000, -545.000000)" fill-rule="nonzero">
            <g id="footer" transform="translate(0.000000, 110.000000)">
                <g id="Payment-Strip" transform="translate(0.000000, 399.000000)">
                    <g id="Payment-logos" transform="translate(202.000000, 36.000000)">
                        <g id="MasterCard_Icon" transform="translate(92.052632, 0.000000)">
                            <g id="mc_symbol" transform="translate(0.126019, 0.000000)">
                                <path d="M12.5919864,10.3533233 C12.5895327,7.45392732 14.0191201,4.71449712 16.4688346,2.92435844 C12.3071552,-0.120716035 6.33081653,0.322825395 2.73982893,3.94327373 C-0.851158679,7.56372206 -0.851158679,13.1455496 2.73982893,16.7659979 C6.33081653,20.3864463 12.3071552,20.8299877 16.4688346,17.7849132 C14.0183406,15.9942061 12.5886657,13.2536404 12.5919864,10.3533233 Z" id="Path" fill="#FFFFFF"></path>
                                <path d="M31.9944251,17.0002518 L31.9944251,16.0408533 L32.1874075,16.0408533 L32.1874075,15.842357 L31.7281093,15.842357 L31.7281093,16.0408533 L31.9095128,16.0408533 L31.9095128,17.0002518 L31.9944251,17.0002518 Z M32.886004,17.0002518 L32.886004,15.842357 L32.7470566,15.842357 L32.5849514,16.6694247 L32.4228461,15.842357 L32.2838987,15.842357 L32.2838987,17.0002518 L32.3842496,17.0002518 L32.3842496,16.12356 L32.5347759,16.8761916 L32.6389865,16.8761916 L32.7895128,16.12356 L32.7895128,17.0002518 L32.886004,17.0002518 Z" id="Shape" fill="#F79E1B"></path>
                                <path d="M32.8925735,10.3533233 C32.8925735,13.9715653 30.6734433,17.2721441 27.1778892,18.8532913 C23.6823352,20.4344384 19.5239573,20.0185627 16.4688346,17.7822881 C18.9174802,15.9906297 20.3471753,13.2515637 20.3471753,10.3520107 C20.3471753,7.45245781 18.9174802,4.71339182 16.4688346,2.92173336 C19.5239573,0.685458796 23.6823352,0.269583087 27.1778892,1.85073024 C30.6734433,3.4318774 32.8925735,6.73245622 32.8925735,10.3506982 L32.8925735,10.3533233 Z" id="Path" fill="#FFFFFF"></path>
                            </g>
                        </g>
                    </g>
                </g>
            </g>
        </g>
    </g>
</svg>