<?xml version="1.0" encoding="UTF-8"?>
<svg class="main-header__logo-image" width="100" height="60" fill="#ffffff" role="presentation" version="1.1" viewBox="0 0 726.62 173.13" xmlns="http://www.w3.org/2000/svg"><g fill="#fff"><path d="m558.32 43.1h-37.942c-2.2318 0-4.4637 2.2319-5.5796 4.4637l-15.623 98.202c0 2.2318 1.1159 3.3478 3.3478 3.3478h20.087c2.2318 0 3.3478-1.1159 3.3478-3.3478l4.4637-27.898c0-2.2318 2.2319-4.4637 5.5796-4.4637h12.275c25.666 0 40.173-12.275 43.521-36.826 2.2318-10.043 0-18.971-4.4637-24.55-6.6956-5.5796-16.739-8.9274-29.014-8.9274m4.4637 36.826c-2.2319 13.391-12.275 13.391-22.319 13.391h-6.6956l4.4637-25.666c0-1.1159 1.116-2.2319 3.3478-2.2319h2.2319c6.6956 0 13.391 0 16.739 4.4637 2.2319 1.1159 2.2319 4.4637 2.2319 10.043" stroke-width="1.3949"/><g transform="matrix(1.3949 0 0 1.3949 14.862 -265.45)"><path d="m193.6 221.2h-27.2c-1.6 0-3.2 1.6-4 3.2l-11.2 70.4c0 1.6 0.8 2.4 2.4 2.4h12.8c1.6 0 3.2-1.6 4-3.2l3.2-19.2c0-1.6 1.6-3.2 4-3.2h8.8c18.4 0 28.8-8.8 31.2-26.4 1.6-7.2 0-13.6-3.2-17.6-4.8-4-11.2-6.4-20.8-6.4m3.2 26.4c-1.6 9.6-8.8 9.6-16 9.6h-4l3.2-18.4c0-0.8 0.8-1.6 2.4-1.6h1.6c4.8 0 9.6 0 12 3.2 0.8 0.8 1.6 3.2 0.8 7.2"/><path d="m276 246.8h-12.8c-0.8 0-2.4 0.8-2.4 1.6l-0.8 4-0.8-1.6c-3.2-4-8.8-5.6-15.2-5.6-14.4 0-27.2 11.2-29.6 26.4-1.6 8 0.8 15.2 4.8 20s9.6 6.4 16.8 6.4c12 0 18.4-7.2 18.4-7.2l-0.8 4c0 1.6 0.8 2.4 2.4 2.4h12c1.6 0 3.2-1.6 4-3.2l7.2-44.8c-0.8-0.8-2.4-2.4-3.2-2.4m-18.4 25.6c-1.6 7.2-7.2 12.8-15.2 12.8-4 0-7.2-1.6-8.8-3.2-1.6-2.4-2.4-5.6-2.4-9.6 0.8-7.2 7.2-12.8 14.4-12.8 4 0 6.4 1.6 8.8 3.2 2.4 2.4 3.2 6.4 3.2 9.6"/></g><g stroke-width="1.3949"><path d="m672.14 78.809h-17.855c-1.116 0-3.3478 1.1159-3.3478 2.2319l-1.1159 5.5796-1.1159-2.2319c-4.4637-5.5796-12.275-7.8115-21.203-7.8115-20.087 0-37.942 15.623-41.289 36.826-2.2319 11.159 1.1159 21.203 6.6955 27.898 5.5796 6.6956 13.391 8.9274 23.434 8.9274 16.739 0 25.666-10.043 25.666-10.043l-1.1159 5.5797c0 2.2318 1.1159 3.3478 3.3478 3.3478h16.739c2.2319 0 4.4637-2.2318 5.5796-4.4637l10.043-62.492c-1.1159-1.1159-2.2319-3.3478-4.4637-3.3478m-25.666 35.71c-2.2319 10.043-10.043 17.855-21.203 17.855-5.5796 0-10.043-2.2319-12.275-4.4637-2.2318-3.3478-3.3478-7.8115-3.3478-13.391 1.1159-10.043 10.043-17.855 20.087-17.855 5.5796 0 8.9274 2.2319 12.275 4.4637 4.4637 3.3478 5.5796 8.9274 4.4637 13.391"/><path d="m496.94 78.809h-18.971c-2.2318 0-3.3478 1.1159-4.4637 2.2319l-24.55 37.942-11.159-35.71c-1.1159-2.2319-2.2318-3.3478-5.5796-3.3478h-17.855c-2.2318 0-3.3478 2.2319-3.3478 4.4637l20.087 59.144-18.971 26.782c-1.1159 2.2318 0 5.5796 2.2318 5.5796h17.855c2.2318 0 3.3478-1.116 4.4637-2.2318l61.376-88.158c3.3478-3.3478 1.1159-6.6956-1.1159-6.6956"/><path d="m693.35 46.447-15.623 100.43c0 2.2318 1.1159 3.3478 3.3478 3.3478h15.623c2.2318 0 4.4637-2.2318 5.5796-4.4637l15.623-98.202c0-2.2319-1.1159-3.3478-3.3478-3.3478h-17.855c-1.1159-1.1159-2.2318 0-3.3478 2.2319"/></g></g><g transform="matrix(.3656 0 0 .3656 1.9958 -.80117)"><path d="m409.71 38.624c-23.871-27.04-67.071-38.624-122.34-38.624h-160.38c-11.296 0-20.896 8.16-22.688 19.2l-66.783 420.19c-1.312 8.288 5.152 15.776 13.6 15.776h99.008l24.864-156.48-0.768 4.928c1.76-11.04 11.328-19.2 22.624-19.2h47.04c92.448 0 164.8-37.248 185.95-144.99 0.64-3.2 1.632-9.344 1.632-9.344 6.015-39.872-0.033-66.912-21.761-91.456z"/><path d="m456.53 150.5c-22.976 106.08-96.288 162.21-212.64 162.21h-42.176l-31.488 199.3h68.416c9.888 0 18.304-7.136 19.84-16.832l0.8-4.224 15.744-98.912 1.024-5.44c1.536-9.696 9.952-16.832 19.808-16.832h12.512c80.864 0 144.16-32.576 162.66-126.82 7.424-37.824 3.84-69.536-14.496-92.448z"/></g></svg>
