<?xml version="1.0" encoding="UTF-8"?>
<svg width="61px" height="20px" viewBox="0 0 61 20" version="1.1" xmlns="http://www.w3.org/2000/svg" xmlns:xlink="http://www.w3.org/1999/xlink">
    <!-- Generator: Sketch 64 (93537) - https://sketch.com -->
    <title>visa logo</title>
    <desc>Created with Sketch.</desc>
    <g id="Symbols" stroke="none" stroke-width="1" fill="none" fill-rule="evenodd">
        <g id="Footer-v1" transform="translate(-461.000000, -541.000000)" fill="#FFFFFF">
            <g id="Footer-v5" transform="translate(-1.000000, 0.000000)">
                <g id="footer" transform="translate(0.000000, 170.000000)">
                    <g id="BOTTOM">
                        <g id="Payment-logos" transform="translate(462.000000, 371.000000)">
                            <g id="visa-logo" transform="translate(0.000000, 0.000000)">
                                <path d="M31.2946932,13.6279192 C31.2603032,10.916537 33.7110452,9.40337575 35.5572467,8.503805 C37.4541283,7.58070424 38.0912488,6.98883375 38.0840088,6.16347307 C38.0695288,4.90009202 36.5708476,4.34261156 35.1680964,4.32089154 C32.7209744,4.28288151 31.2983132,4.98154209 30.1670623,5.51006253 L29.2855915,1.38506911 C30.4204625,0.861978681 32.5218742,0.405858304 34.701116,0.385948287 C39.8161802,0.385948287 43.162873,2.91090038 43.180973,6.82593361 C43.200883,11.7943877 36.3083973,12.069508 36.3554574,14.2903798 C36.3717474,14.9637003 37.0142979,15.6822709 38.4224791,15.8650811 C39.1193297,15.9573912 41.0433612,16.0279812 43.2244131,15.0234304 L44.0805438,19.0144837 C42.9076628,19.4416441 41.3999315,19.8507044 39.52296,19.8507044 C34.708356,19.8507044 31.3218432,17.2913623 31.2946932,13.6279192 M52.3070006,19.5068041 C51.3730398,19.5068041 50.5856891,18.9619937 50.2345489,18.125773 L42.9275728,0.67916853 L48.039017,0.67916853 L49.0562379,3.49010086 L55.302553,3.49010086 L55.8926135,0.67916853 L60.3977073,0.67916853 L56.466384,19.5068041 L52.3070006,19.5068041 M53.0219512,14.4206999 L54.4971024,7.35083405 L50.457179,7.35083405 L53.0219512,14.4206999 M25.0972481,19.5068041 L21.0681847,0.67916853 L25.9388988,0.67916853 L29.9661521,19.5068041 L25.0972481,19.5068041 M17.8916321,19.5068041 L12.8218179,6.6919935 L10.7710862,17.5882025 C10.530356,18.8045235 9.58010522,19.5068041 8.52487435,19.5068041 L0.236877495,19.5068041 L0.121037399,18.9601837 C1.82243881,18.5909433 3.75552041,17.9954529 4.92659137,17.3583323 C5.64335197,16.969182 5.84788214,16.6289017 6.08318233,15.703991 L9.96744554,0.67916853 L15.1150898,0.67916853 L23.0066963,19.5068041 L17.8916321,19.5068041" id="path10273" transform="translate(30.259372, 10.118326) scale(1, -1) translate(-30.259372, -10.118326) "></path>
                            </g>
                        </g>
                    </g>
                </g>
            </g>
        </g>
    </g>
</svg>