<svg width="60" height="22.8" viewBox="0 0 505 194" fill="none" xmlns="http://www.w3.org/2000/svg">
<path d="M11.3504 158.152L15.7505 194H169.794L164.753 152.945H92.9305L92.3029 147.858L158.456 101.631L154.036 65.71H0L5.04096 106.764H76.9819L77.6161 111.898L11.3504 158.152Z" fill="white"/>
<path d="M171.934 65.71L187.691 194H341.853L326.096 65.71H171.934Z" fill="white"/>
<path d="M503.514 111.898C499.959 83.0595 477.305 65.5846 446.517 65.7101H343.981L359.724 193.993H405.853L402.695 168.339H451.512C489.944 168.339 507.524 144.397 503.514 111.898ZM446.537 132.379L398.308 132.432L394.529 101.644L443.029 101.684C454.439 101.816 460.273 108.238 461.211 117.031C461.792 122.68 459.202 132.372 446.537 132.372V132.379Z" fill="white"/>
<path d="M218.903 49.2361C227.075 40.5426 225.723 25.997 215.884 16.7475C206.045 7.49809 191.444 7.04737 183.271 15.7409C175.099 24.4343 176.45 38.98 186.29 48.2294C196.129 57.4789 210.73 57.9295 218.903 49.2361Z" fill="white"/>
</svg>
